# xmcd
#
# Track frame offsets:
#	182
#	4637
#	29552
#	74197
#	82970
#	104065
#	135047
#	173425
#	186712
#
# Disc length: 3144
#
# Revision: 5
# Processed by: cddbd v1.5.1PL0 Copyright (c) Steve Scherf et al.
# Submitted via: CDex 1.51
# Normalized: r4:DSETVAR1
#
DISCID=760c4609
DTITLE=Various Artist - Straight No Chaser [CD1]
DYEAR=1994
DGENRE=Jazz
TTITLE0=Art Blakey - Pee Wee Marquette's Intro
TTITLE1=Herbie Hancock - Cantaloupe Island
TTITLE2=Reuben Wilson - Ronnie's Bonnie
TTITLE3=Art Blakey - Comment on Ritual
TTITLE4=John Patton - Alfie's Theme
TTITLE5=Lou Donaldson - Cool Blues
TTITLE6=Art Blakey - Crisis
TTITLE7=Thelonious Monk - Straight No Chaser
TTITLE8=Grant Green - Sookie Sookie
EXTD=YEAR: 1994
EXTT0=
EXTT1=
EXTT2=
EXTT3=
EXTT4=
EXTT5=
EXTT6=
EXTT7=
EXTT8=
PLAYORDER=
